<?xml version="1.0" encoding="UTF-8" standalone="no"?>
<!DOCTYPE svg PUBLIC "-//W3C//DTD SVG 1.1//EN" "http://www.w3.org/Graphics/SVG/1.1/DTD/svg11.dtd">
<!-- Created with Vectornator (http://vectornator.io/) -->
<svg height="100%" stroke-miterlimit="10" style="fill-rule:nonzero;clip-rule:evenodd;stroke-linecap:round;stroke-linejoin:round;" version="1.1" viewBox="0 0 610.47 610.47" width="100%" xml:space="preserve" xmlns="http://www.w3.org/2000/svg" xmlns:vectornator="http://vectornator.io" xmlns:xlink="http://www.w3.org/1999/xlink">
<defs/>
<clipPath id="ArtboardFrame">
<rect height="610.47" width="610.47" x="0" y="0"/>
</clipPath>
<g clip-path="url(#ArtboardFrame)" id="Untitled" vectornator:layerName="Untitled">
<g opacity="1">
<path d="M493.388 312.459C493.388 397.613 493.403 482.267 493.377 566.921C493.371 587.528 481.762 603.517 462.469 609.119C458.552 610.256 454.244 610.404 450.116 610.407C353.464 610.475 256.811 610.491 160.159 610.437C136.552 610.424 119.851 594.758 118.122 571.212C117.684 565.237 117.418 559.234 117.416 553.244C117.379 388.102 117.857 222.957 117 57.8192C116.823 23.721 143.899-10.449 190.793 2.99962C215.573 10.1059 229.499 28.8453 229.503 54.7319C229.511 112.89 229.506 171.048 229.506 229.206C229.506 231.017 229.506 232.828 229.506 235.431C231.745 235.431 233.662 235.431 235.579 235.431C269.407 235.431 303.236 235.415 337.064 235.438C357.758 235.451 372.303 246.538 378.65 266.294C386.299 290.1 376.697 309.601 361.767 319.206C354.993 323.563 347.614 325.531 339.515 325.506C304.854 325.398 270.192 325.46 235.531 325.46C233.721 325.46 231.912 325.46 229.805 325.46C229.805 392.828 229.805 459.891 229.805 527.331C289.678 527.331 349.569 527.331 410.158 527.331C410.158 525.522 410.158 523.599 410.158 521.676C410.158 441.022 410.208 360.367 410.117 279.712C410.099 263.034 416.215 249.631 430.837 241.303C458.837 225.355 492.582 244.73 493.336 276.967C493.608 288.625 493.385 300.295 493.388 312.459L493.388 312.459Z" fill="#ffffff" fill-rule="nonzero" opacity="1" stroke="none"/>
<path d="M309.387 491.463C296.4 491.461 283.912 491.507 271.425 491.438C263.926 491.397 258.811 486.682 258.118 479.402C257.52 473.117 262.018 467.048 268.635 465.556C270.878 465.051 273.254 464.98 275.57 464.976C301.035 464.938 326.499 464.952 352.618 464.952C352.618 462.985 352.618 461.216 352.618 459.447C352.618 435.471 352.583 411.495 352.667 387.52C352.677 384.73 352.96 381.821 353.791 379.18C355.627 373.345 362.105 369.574 367.926 370.526C374.757 371.642 379.302 376.316 379.321 382.972C379.414 415.105 379.424 447.24 379.311 479.373C379.285 486.617 374.21 491.383 366.83 491.418C347.849 491.508 328.868 491.457 309.387 491.463Z" fill="#ffffff" fill-rule="nonzero" opacity="1" stroke="none"/>
</g>
</g>
</svg>
