<?xml version="1.0" encoding="UTF-8" standalone="no"?>
<svg
   version="1.1"
   id="Layer_1"
   x="0px"
   y="0px"
   width="376.4722"
   viewBox="0 0 376.4722 610.46918"
   enable-background="new 0 0 1080 1080"
   xml:space="preserve"
   sodipodi:docname="My project-1_adobe_express.svg"
   height="610.46918"
   inkscape:version="1.1.1 (c3084ef, 2021-09-22)"
   xmlns:inkscape="http://www.inkscape.org/namespaces/inkscape"
   xmlns:sodipodi="http://sodipodi.sourceforge.net/DTD/sodipodi-0.dtd"
   xmlns="http://www.w3.org/2000/svg"
   xmlns:svg="http://www.w3.org/2000/svg"><defs
   id="defs18" /><sodipodi:namedview
   id="namedview16"
   pagecolor="#ffffff"
   bordercolor="#666666"
   borderopacity="1.0"
   inkscape:pageshadow="2"
   inkscape:pageopacity="0.0"
   inkscape:pagecheckerboard="0"
   showgrid="false"
   fit-margin-top="0"
   fit-margin-left="0"
   fit-margin-right="0"
   fit-margin-bottom="0"
   inkscape:zoom="0.66574074"
   inkscape:cx="175.74409"
   inkscape:cy="319.19332"
   inkscape:window-width="1629"
   inkscape:window-height="997"
   inkscape:window-x="0"
   inkscape:window-y="25"
   inkscape:window-maximized="1"
   inkscape:current-layer="Layer_1" />

<path
   fill="#fefefe"
   opacity="1"
   stroke="none"
   d="m 376.38916,312.45897 c 0,85.15411 0.0149,169.80829 -0.0109,254.4624 -0.006,20.60626 -11.61481,36.59589 -30.90826,42.19721 -3.91718,1.13726 -8.22486,1.2857 -12.35291,1.28857 -96.65228,0.0675 -193.30466,0.0838 -289.956966,0.0296 C 19.553254,610.42355 2.8524444,594.75798 1.1235344,571.21196 0.68475443,565.23674 0.41860443,559.23399 0.41726443,553.24376 0.38016443,388.10155 0.85806443,222.95692 8.2443316e-4,57.819172 -0.17617557,23.721022 26.900204,-10.449038 73.794584,2.9996222 98.573694,10.105942 112.49999,28.845292 112.50375,54.731892 c 0.008,58.158048 0.003,116.316098 0.003,174.474148 0,1.81082 -6e-5,3.62164 -6e-5,6.22482 2.23904,0 4.15619,0 6.07333,3e-5 33.82831,3.1e-4 67.65665,-0.0154 101.48496,0.007 20.69396,0.0136 35.23883,11.10028 41.58599,30.8558 7.64869,23.80652 -1.9533,43.30738 -16.88311,52.91181 -6.77362,4.35754 -14.15253,6.32574 -22.25141,6.30047 -34.66119,-0.10827 -69.32293,-0.0461 -103.98446,-0.0461 -1.80967,0 -3.61936,0 -5.72611,0 0,67.3678 0,134.43103 0,201.87128 59.87342,0 119.76471,0 180.35278,0 0,-1.80926 -6e-5,-3.73212 -6e-5,-5.65491 1.9e-4,-80.65472 0.0503,-161.30951 -0.0403,-241.96411 -0.0187,-16.67834 6.09814,-30.08102 20.71936,-38.40899 28.00006,-15.94828 61.7453,3.42636 62.49896,35.66375 0.27252,11.65808 0.0494,23.32776 0.0525,35.49219 z"
   id="path11" />
<path
   fill="#fdfdfd"
   opacity="1"
   stroke="none"
   d="m 192.38837,491.463 c -12.98737,-0.002 -25.47498,0.0444 -37.96204,-0.0248 -7.49911,-0.0416 -12.61395,-4.75653 -13.30716,-12.03632 -0.59842,-6.28479 3.90024,-12.35431 10.51728,-13.84576 2.24301,-0.50556 4.61911,-0.57624 6.93478,-0.57972 25.4646,-0.0383 50.9292,-0.024 77.04797,-0.024 0,-1.96741 -6e-5,-3.73645 -6e-5,-5.50556 1.3e-4,-23.97577 -0.0354,-47.95172 0.0485,-71.92718 0.01,-2.78943 0.29297,-5.69849 1.12426,-8.33966 1.83637,-5.83466 8.31446,-9.60572 14.13489,-8.65436 6.83154,1.11658 11.37659,5.79022 11.39575,12.44604 0.0924,32.13373 0.10236,64.26807 -0.0106,96.40162 -0.0254,7.24377 -5.10101,12.00952 -12.4812,12.04467 -18.98047,0.0903 -37.96155,0.0395 -57.44238,0.0451 z"
   id="path13" />
</svg>
